<svg xmlns="http://www.w3.org/2000/svg" height="24" viewBox="0 -960 960 960" width="24"><path d="M225.133-129Q186-129 157.5-157.5 129-186 129-225.133q0-39.132 28.5-67Q186-320 225.133-320q39.132 0 67 27.867 27.867 27.868 27.867 67Q320-186 292.133-157.5q-27.868 28.5-67 28.5Zm0-256Q186-385 157.5-412.867q-28.5-27.868-28.5-67Q129-519 157.5-547q28.5-28 67.633-28 39.132 0 67 27.867 27.867 27.867 27.867 67Q320-441 292.133-413q-27.868 28-67 28Zm0-255Q186-640 157.5-667.867q-28.5-27.867-28.5-67Q129-774 157.5-802.5 186-831 225.133-831q39.132 0 67 28.5Q320-774 320-734.867q0 39.133-27.867 67-27.868 27.867-67 27.867Zm255 0Q441-640 413-667.867q-28-27.867-28-67Q385-774 412.867-802.5q27.868-28.5 67-28.5Q519-831 547-802.5q28 28.5 28 67.633 0 39.133-27.867 67-27.867 27.867-67 27.867Zm254.734 0q-39.133 0-67-27.867-27.867-27.867-27.867-67Q640-774 667.867-802.5q27.867-28.5 67-28.5Q774-831 802.5-802.5 831-774 831-734.867q0 39.133-28.5 67Q774-640 734.867-640ZM480.133-385Q441-385 413-412.867q-28-27.868-28-67Q385-519 412.867-547q27.868-28 67-28Q519-575 547-547.133q28 27.867 28 67Q575-441 547.133-413q-27.867 28-67 28ZM514-129v-151l227-226q12-12.176 26.667-17.588Q782.333-529 797-529q16 0 30.548 6 14.549 6 26.452 18l37 37q10.824 12 16.912 26.667Q914-426.667 914-412q0 16-5.5 30.5T891-355L665-129H514Zm293-254 27-29-37-37-28 28 38 38Z"/></svg>