<?xml version="1.0" encoding="utf-8"?>
<!-- Generator: Adobe Illustrator 28.3.0, SVG Export Plug-In . SVG Version: 6.00 Build 0)  -->
<svg version="1.1" id="레이어_1" xmlns="http://www.w3.org/2000/svg" xmlns:xlink="http://www.w3.org/1999/xlink" x="0px"
	 y="0px" viewBox="0 0 24 24" style="enable-background:new 0 0 24 24;" xml:space="preserve">
<path d="M8.5,7.8l-1.3,4.6l4,2.7l1.3-4.6L8.5,7.8z M20.8,3.9l0.9,0.4c0.5,0.2,0.9,0.6,1,1.1c0.2,0.5,0.1,1.1-0.1,1.6l-1.8,3.9V3.9z
	 M16.8,1.7c0.5,0,1,0.2,1.4,0.6c0.4,0.4,0.6,0.9,0.6,1.4v6l-2.7-7.3C16.1,2.2,16,2.1,16,2s-0.1-0.2-0.2-0.3H16.8z M10.3,1.4
	c0.8-0.3,1.6-0.3,2.4,0.1c0.8,0.4,1.3,1,1.6,1.8L18.6,15c0.3,0.8,0.3,1.6-0.1,2.4c-0.4,0.8-1,1.3-1.8,1.6l-7,2.6
	c-0.8,0.3-1.6,0.3-2.4-0.1s-1.3-1-1.6-1.8L1.4,8C1.1,7.1,1.1,6.3,1.4,5.6s1-1.3,1.8-1.6L10.3,1.4z"/>
</svg>
